<svg id="Layer_1" data-name="Layer 1" xmlns="http://www.w3.org/2000/svg" viewBox="0 0 346.21 441.97">
  <defs>
    <style>
      .cls-1 {
        fill: #fff;
        stroke: #1d1d1b;
        stroke-miterlimit: 10;
        stroke-width: 4px;
      }

      .cls-2 {
        fill: #1d1d1b;
      }
    </style>
  </defs>
  <title>Artboard 1</title>
  <rect class="cls-1" x="26.48" y="55.57" width="293.24" height="282.43"/>
  <path class="cls-2" d="M69.16,91.61h66.4V98.5H78.39v35.1h54.15v7.15H78.39v36.53h57.17v6.89H69.16Z"/>
  <path class="cls-2" d="M274.39,91.61v92.56h-7.54v-74.1l-32.5,74.1h-6l-32.76-73.45.13,73.45H188.2V91.61h6.63l36.66,82.94,36.14-82.94Z"/>
  <path class="cls-2" d="M69.06,214.07l92.56.11v7.54l-74.1-.09,74.06,32.59v6l-73.5,32.65h73.45v7.54L69,300.26v-6.63l83-36.56L69.06,220.83Z"/>
  <path class="cls-2" d="M256.18,275.23H206.26l-10.66,24.7h-8.32l40.3-92.56h7.28L275,299.93h-8.32Zm-3.12-7-21.84-51.09-22,51.09Z"/>
  <g>
    <path class="cls-2" d="M63.48,355.42H66v26.32H80.68v2.16H63.48Z"/>
    <path class="cls-2" d="M92.58,381.36q-2.82-2.85-2.82-8.42V355.42h2.48v17.8q0,8.79,8.6,8.8c2.8,0,4.92-.74,6.38-2.22s2.18-3.67,2.18-6.58v-17.8h2.44v17.52c0,3.71-.94,6.52-2.8,8.42s-4.6,2.86-8.2,2.86S94.46,383.27,92.58,381.36Z"/>
    <path class="cls-2" d="M151.56,355.42V383.9h-2.32V361.1l-10,22.8H137.4l-10.08-22.6v22.6H125V355.42h2l11.28,25.52,11.12-25.52Z"/>
    <path class="cls-2" d="M167.82,383.32a12.64,12.64,0,0,1-4.58-2.82l1-2a13.36,13.36,0,0,0,4.3,2.68,15,15,0,0,0,5.18.8,9.24,9.24,0,0,0,5.6-1.48,4.84,4.84,0,0,0,2-4.16,3.44,3.44,0,0,0-1-2.54,6.86,6.86,0,0,0-2.48-1.54,32,32,0,0,0-4-1.12,40,40,0,0,1-5.34-1.5A8.79,8.79,0,0,1,165,367.3a6.06,6.06,0,0,1-1.4-4.16,7.42,7.42,0,0,1,1.25-4.24,8,8,0,0,1,3.53-2.84,13.27,13.27,0,0,1,5.34-1,15,15,0,0,1,5.4.94,11.61,11.61,0,0,1,4.28,2.78l-1,2a14,14,0,0,0-4.08-2.64,12.05,12.05,0,0,0-4.56-.84,9,9,0,0,0-5.62,1.56,5.12,5.12,0,0,0-2,4.28,3.93,3.93,0,0,0,1.76,3.52,16.33,16.33,0,0,0,5.16,2l1.16.28a42.23,42.23,0,0,1,5.08,1.48,8.26,8.26,0,0,1,3.2,2.16,5.4,5.4,0,0,1,1.32,3.84,6.93,6.93,0,0,1-1.24,4.1,8,8,0,0,1-3.54,2.76,13.54,13.54,0,0,1-5.33,1A18.1,18.1,0,0,1,167.82,383.32Z"/>
    <path class="cls-2" d="M195.44,355.42h9.16q6.81,0,10.48,3.68t3.68,10.52q0,6.84-3.7,10.56T204.6,383.9h-9.16Zm9,26.32q5.79,0,8.72-3.06c1.94-2,2.92-5.06,2.92-9.06q0-12-11.64-12h-6.56v24.16Z"/>
    <path class="cls-2" d="M231,355.42h17.56v2.08H233.44v10.8h14.32v2.2H233.44v11.24h15.12v2.12H231Z"/>
    <path class="cls-2" d="M282.72,355.42V383.9H280.8l-18.08-24.28V383.9H260.4V355.42h2l18,24.28V355.42Z"/>
  </g>
</svg>
