<svg id="Layer_1" data-name="Layer 1" xmlns="http://www.w3.org/2000/svg" viewBox="0 0 124 124">
  <title>Artboard 1</title>
  <path d="M84.33,110.87l-21.75-32-22.3,32a56.21,56.21,0,0,1-8.19,9.56,12.67,12.67,0,0,1-8.51,2.86,14.14,14.14,0,0,1-9.73-3.58,10.7,10.7,0,0,1-4-8.18Q9.84,106.81,16,98L43.13,59.13,19.07,26.72q-6.25-8-6.26-14a10.54,10.54,0,0,1,3.74-8,13.92,13.92,0,0,1,9.77-3.4,13,13,0,0,1,8.74,3,55.44,55.44,0,0,1,8.07,9.34L62.58,40.23l18.9-26.59a51.4,51.4,0,0,1,8.18-9.45,13.11,13.11,0,0,1,8.62-2.85,14.58,14.58,0,0,1,9.84,3.35,10.29,10.29,0,0,1,3.9,8.07,14.17,14.17,0,0,1-1.6,6.54,50,50,0,0,1-4.88,7.42L81.48,59.13,108.61,98q6.38,9.12,6.37,13.73a10.38,10.38,0,0,1-4,8.13,14.48,14.48,0,0,1-9.78,3.41,13.2,13.2,0,0,1-8.73-3A51.21,51.21,0,0,1,84.33,110.87Z"/>
</svg>
